<?xml version="1.0" encoding="UTF-8" standalone="no"?>
<!-- Created with Inkscape (http://www.inkscape.org/) -->

<svg
   width="95.383354mm"
   height="16.705828mm"
   viewBox="0 0 95.383354 16.705828"
   version="1.1"
   id="svg1"
   xml:space="preserve"
   xmlns="http://www.w3.org/2000/svg"
   xmlns:svg="http://www.w3.org/2000/svg"><defs
     id="defs1" /><g
     id="layer1"
     transform="translate(538.8777,616.65568)"><g
       id="text94-3-1-7-8"
       style="font-size:16.8412px;line-height:0;font-family:Arial;-inkscape-font-specification:Arial;fill:#ffffff;stroke-width:8.4206;stroke-linecap:round"
       transform="matrix(0.35166908,0,0,0.31895849,-215.82199,-485.50131)"
       aria-label="SA-20 PRODUCTIONS, LLC"><path
         style="font-weight:bold;font-family:Arsenal;-inkscape-font-specification:'Arsenal Bold'"
         d="m -872.23223,-380.37413 q -1.11152,0 -1.85253,-0.2863 -0.74101,-0.30315 -1.11152,-0.63997 -0.35366,-0.33682 -0.35366,-0.40419 l 0.63996,-0.97679 q 0,0.0337 0.31998,0.31998 0.33683,0.26946 0.89259,0.50524 0.5726,0.23578 1.31361,0.23578 0.79154,0 1.22941,-0.42103 0.43787,-0.42103 0.43787,-1.11152 0,-0.43787 -0.23578,-0.75786 -0.23577,-0.33682 -0.58944,-0.55576 -0.33682,-0.23577 -0.95995,-0.58944 -0.80837,-0.42103 -1.33045,-0.80838 -0.52208,-0.38734 -0.89259,-1.01047 -0.3705,-0.62312 -0.3705,-1.53255 0,-0.99363 0.45471,-1.73464 0.45471,-0.74101 1.26309,-1.12836 0.80838,-0.40419 1.83569,-0.40419 0.67365,0 1.26309,0.16841 0.60628,0.16841 1.01047,0.38735 0.42103,0.20209 0.42103,0.21894 l -0.26946,1.1452 q -0.0842,-0.0505 -0.42103,-0.21894 -0.31998,-0.18525 -0.82521,-0.35366 -0.50524,-0.16842 -1.02732,-0.16842 -0.63996,0 -1.02731,0.37051 -0.38735,0.35367 -0.38735,0.99363 0,0.70733 0.45471,1.12836 0.45472,0.42103 1.39782,0.92627 0.84206,0.45471 1.3473,0.82522 0.50524,0.3705 0.8589,1.01047 0.37051,0.62312 0.37051,1.56623 0,1.02731 -0.52208,1.76833 -0.50524,0.74101 -1.38098,1.1452 -0.87574,0.38735 -1.95358,0.38735 z m 4.76607,-0.18526 3.6377,-10.94678 h 2.5767 l 3.40193,10.94678 h -2.45882 l -0.94311,-3.0651 h -3.80611 l -0.99363,3.0651 z m 2.74512,-4.12609 h 3.1493 l -1.49887,-5.15341 h -0.0337 z m 7.69642,0.11789 v -1.24625 h 4.58081 v 1.24625 z m 5.65865,2.27356 q 0.79154,-0.30314 1.81885,-1.16204 1.02731,-0.87575 1.78517,-2.13884 0.75785,-1.27993 0.75785,-2.71143 0,-1.22941 -0.37051,-1.66728 -0.3705,-0.45471 -1.2294,-0.45471 -0.38735,0 -0.87575,0.18525 -0.47155,0.18526 -0.82522,0.38735 -0.35366,0.18525 -0.45471,0.25262 l -0.23577,-1.17889 q 0,-0.0168 0.45471,-0.25261 0.45471,-0.23578 1.07783,-0.43787 0.62313,-0.2021 1.26309,-0.2021 1.80201,0 2.72828,0.89258 0.94311,0.87575 0.94311,2.32409 0,1.65044 -1.24625,3.13246 -1.24625,1.48203 -2.9809,2.66091 h 4.37872 v 2.10515 h -6.9891 z m 12.46247,1.9199 q -4.14293,0 -4.14293,-5.62496 0,-5.67549 4.14293,-5.67549 4.1261,0 4.1261,5.67549 0,2.72827 -0.99363,4.17661 -0.97679,1.44835 -3.13247,1.44835 z m 0,-1.16205 q 0.63997,0 0.97679,-0.38734 0.35367,-0.38735 0.4884,-1.33046 0.15157,-0.95995 0.15157,-2.74511 0,-1.80201 -0.15157,-2.76196 -0.13473,-0.95995 -0.4884,-1.3473 -0.33682,-0.40419 -0.97679,-0.40419 -0.63996,0 -0.99363,0.40419 -0.33682,0.38735 -0.48839,1.3473 -0.13473,0.95995 -0.13473,2.76196 0,1.802 0.13473,2.74511 0.15157,0.94311 0.48839,1.33046 0.35367,0.38734 0.99363,0.38734 z m 10.45838,-9.96999 h 3.3514 q 1.86937,0 2.89669,0.94311 1.04415,0.92627 1.04415,2.76196 0,1.31361 -0.5726,2.17251 -0.5726,0.8589 -1.46518,1.26309 -0.89259,0.38735 -1.85254,0.38735 h -1.07783 v 3.41876 h -2.32409 z m 3.13247,6.45018 q 0.84206,0 1.24624,-0.5726 0.40419,-0.58944 0.40419,-2.07147 0,-1.49886 -0.40419,-2.10515 -0.40418,-0.60628 -1.24624,-0.60628 h -0.80838 v 5.3555 z m 5.84391,-6.45018 h 3.36824 q 1.85253,0 2.89668,0.90943 1.04416,0.89258 1.04416,2.52618 0,1.06099 -0.52208,1.85253 -0.52208,0.77469 -1.36414,1.21257 l 2.52618,4.44607 h -2.67775 l -2.05462,-3.97452 h -0.89259 v 3.97452 h -2.32408 z m 3.18298,5.86074 q 0.62313,0 0.95995,-0.20209 0.35367,-0.21894 0.50524,-0.72418 0.15157,-0.50523 0.15157,-1.39782 0,-1.31361 -0.38735,-1.86937 -0.3705,-0.5726 -1.27993,-0.5726 h -0.80838 v 4.76606 z m 10.81204,5.2713 q -2.37461,0 -3.67138,-1.49887 -1.27994,-1.51571 -1.27994,-4.14294 0,-2.62722 1.27994,-4.14293 1.29677,-1.51571 3.67138,-1.51571 2.39145,0 3.68822,1.53255 1.31361,1.51571 1.31361,4.12609 0,2.61039 -1.31361,4.1261 -1.29677,1.51571 -3.68822,1.51571 z m 0,-1.19573 q 1.29677,0 1.85253,-1.04415 0.5726,-1.061 0.5726,-3.40193 0,-2.32408 -0.5726,-3.38508 -0.5726,-1.06099 -1.85253,-1.06099 -1.26309,0 -1.83569,1.06099 -0.55576,1.061 -0.55576,3.38508 0,2.34093 0.55576,3.40193 0.55576,1.04415 1.83569,1.04415 z m 6.90489,-9.93631 h 3.72191 q 2.54302,0 3.90716,1.41466 1.38097,1.39782 1.38097,4.09242 0,2.6609 -1.34729,4.05872 -1.3473,1.38098 -3.924,1.38098 h -3.73875 z m 3.75559,9.75106 q 0.97679,0 1.54939,-0.40419 0.58944,-0.42103 0.8589,-1.33046 0.26946,-0.92626 0.26946,-2.50933 0,-1.58308 -0.2863,-2.52618 -0.26946,-0.94311 -0.8589,-1.36414 -0.58944,-0.42103 -1.56623,-0.42103 h -1.39782 v 8.55533 z m 11.01414,1.38098 q -1.98727,0 -3.01458,-1.09468 -1.01047,-1.09468 -1.01047,-3.0651 v -6.97226 h 2.34093 v 6.45018 q 0,1.81885 0.48839,2.61039 0.50524,0.79153 1.56623,0.79153 1.12836,0 1.66728,-0.82521 0.53892,-0.82522 0.53892,-2.57671 v -6.45018 h 1.4315 v 6.97226 q 0,1.98726 -0.94311,3.08194 -0.9431,1.07784 -3.06509,1.07784 z m 10.84573,0 q -2.47565,0 -3.77243,-1.48203 -1.29677,-1.49887 -1.29677,-4.09241 0,-1.7178 0.58944,-3.01458 0.58944,-1.29677 1.7178,-2.0041 1.12837,-0.70733 2.67776,-0.70733 0.77469,0 1.5157,0.2021 0.75786,0.18525 1.29678,0.42103 0.55576,0.21893 0.55576,0.23577 l -0.23578,1.22941 q -0.11789,-0.0674 -0.5726,-0.25262 -0.45471,-0.20209 -1.09468,-0.38735 -0.62312,-0.18525 -1.17888,-0.18525 -0.94311,0 -1.53255,0.42103 -0.58945,0.42103 -0.89259,1.38098 -0.2863,0.95995 -0.2863,2.5767 0,2.37461 0.69049,3.38508 0.69049,1.01048 2.13883,1.01048 0.80838,0 1.41467,-0.33683 0.62312,-0.35366 0.99363,-0.75785 0.38734,-0.42103 0.38734,-0.47156 l 0.74102,0.80838 q 0,0.0842 -0.45472,0.60629 -0.43787,0.52207 -1.29677,0.97678 -0.8589,0.43788 -2.10515,0.43788 z m 7.20804,-0.18526 v -9.73421 h -2.94721 v -1.21257 h 8.21851 v 1.21257 h -2.93037 v 9.73421 z m 6.80386,0 v -10.94678 h 2.32408 v 10.94678 z m 9.19528,0.18526 q -2.37461,0 -3.67138,-1.49887 -1.27993,-1.51571 -1.27993,-4.14294 0,-2.62722 1.27993,-4.14293 1.29677,-1.51571 3.67138,-1.51571 2.39145,0 3.68822,1.53255 1.31362,1.51571 1.31362,4.12609 0,2.61039 -1.31362,4.1261 -1.29677,1.51571 -3.68822,1.51571 z m 0,-1.19573 q 1.29677,0 1.85253,-1.04415 0.5726,-1.061 0.5726,-3.40193 0,-2.32408 -0.5726,-3.38508 -0.5726,-1.06099 -1.85253,-1.06099 -1.26309,0 -1.83569,1.06099 -0.55576,1.061 -0.55576,3.38508 0,2.34093 0.55576,3.40193 0.55576,1.04415 1.83569,1.04415 z m 6.9049,1.01047 v -10.94678 h 2.40829 l 4.59765,7.42697 h 0.0337 l -0.11789,-0.75785 v -6.66912 h 1.44835 v 10.94678 h -1.81885 l -5.20393,-8.2185 h -0.0337 l 0.13473,0.97679 v 7.24171 z m 13.50666,0.18526 q -1.11152,0 -1.85253,-0.2863 -0.74101,-0.30315 -1.11152,-0.63997 -0.35367,-0.33682 -0.35367,-0.40419 l 0.63997,-0.97679 q 0,0.0337 0.31998,0.31998 0.33683,0.26946 0.89259,0.50524 0.5726,0.23578 1.31361,0.23578 0.79154,0 1.22941,-0.42103 0.43787,-0.42103 0.43787,-1.11152 0,-0.43787 -0.23578,-0.75786 -0.23578,-0.33682 -0.58944,-0.55576 -0.33682,-0.23577 -0.95995,-0.58944 -0.80838,-0.42103 -1.33045,-0.80838 -0.52208,-0.38734 -0.89259,-1.01047 -0.3705,-0.62312 -0.3705,-1.53255 0,-0.99363 0.45471,-1.73464 0.45471,-0.74101 1.26309,-1.12836 0.80838,-0.40419 1.83569,-0.40419 0.67365,0 1.26309,0.16841 0.60628,0.16841 1.01047,0.38735 0.42103,0.20209 0.42103,0.21894 l -0.26946,1.1452 q -0.0842,-0.0505 -0.42103,-0.21894 -0.31998,-0.18525 -0.82522,-0.35366 -0.50523,-0.16842 -1.02731,-0.16842 -0.63997,0 -1.02731,0.37051 -0.38735,0.35367 -0.38735,0.99363 0,0.70733 0.45471,1.12836 0.45471,0.42103 1.39782,0.92627 0.84206,0.45471 1.3473,0.82522 0.50523,0.3705 0.8589,1.01047 0.37051,0.62312 0.37051,1.56623 0,1.02731 -0.52208,1.76833 -0.50524,0.74101 -1.38098,1.1452 -0.87574,0.38735 -1.95358,0.38735 z"
         id="path2" /><path
         style="font-weight:bold;font-size:12.2811px;font-family:Sans;-inkscape-font-specification:'Sans Bold'"
         d="m -721.18263,-382.91606 -2.15879,4.57543 h -1.33725 l 1.18134,-4.57543 z"
         id="path3" /><path
         style="font-weight:bold;font-family:Arsenal;-inkscape-font-specification:'Arsenal Bold'"
         d="m -714.85978,-380.55939 v -10.94678 h 2.32408 v 9.73422 h 4.24399 v 1.21256 z m 8.06694,0 v -10.94678 h 2.32408 v 9.73422 h 4.24399 v 1.21256 z m 12.44565,0.18526 q -2.47566,0 -3.77243,-1.48203 -1.29677,-1.49887 -1.29677,-4.09241 0,-1.7178 0.58944,-3.01458 0.58944,-1.29677 1.7178,-2.0041 1.12836,-0.70733 2.67775,-0.70733 0.7747,0 1.51571,0.2021 0.75786,0.18525 1.29677,0.42103 0.55576,0.21893 0.55576,0.23577 l -0.23577,1.22941 q -0.11789,-0.0674 -0.5726,-0.25262 -0.45472,-0.20209 -1.09468,-0.38735 -0.62313,-0.18525 -1.17889,-0.18525 -0.9431,0 -1.53254,0.42103 -0.58945,0.42103 -0.89259,1.38098 -0.2863,0.95995 -0.2863,2.5767 0,2.37461 0.69049,3.38508 0.69049,1.01048 2.13883,1.01048 0.80838,0 1.41466,-0.33683 0.62313,-0.35366 0.99363,-0.75785 0.38735,-0.42103 0.38735,-0.47156 l 0.74101,0.80838 q 0,0.0842 -0.45471,0.60629 -0.43787,0.52207 -1.29677,0.97678 -0.8589,0.43788 -2.10515,0.43788 z"
         id="path4" /></g><rect
       style="opacity:1;fill:none;fill-opacity:1;stroke:#ffffff;stroke-width:0.2;stroke-linecap:round;stroke-dasharray:none;stroke-opacity:1"
       id="rect5"
       width="95.18338"
       height="16.505856"
       x="-538.77771"
       y="-616.55573" /></g></svg>
